<svg version="1.0" xmlns="http://www.w3.org/2000/svg" width="93.333" height="94.667" viewBox="0 0 70 71"><path d="M35.2 10.1c-.2 3.2-.6 3.7-3.3 4.3-4.3.8-8.9 5.7-8.9 9.4 0 4.5 3.3 7.8 11 10.7 9.6 3.7 12 5.7 12 10.3-.1 4.6-1.6 6.7-6.3 8.7-4.3 1.8-6.8 1.9-11.9.4C24.5 53 24 52.5 24 50c0-1.7-.4-3-1-3-.5 0-1 1.3-1 3 0 3.5 1.9 4.8 8.4 5.6l4.5.7.4 4.6.3 4.6.2-4.7c.2-4.3.4-4.7 3.6-5.8 5.1-1.7 7.7-5 7.8-10.1.1-5.4-2.3-7.6-12.1-11.4-8.4-3.2-11.5-6.4-10.7-11 1.1-5.7 7.8-8.6 15.9-6.9 3.8.8 4.2 1.2 4.5 4.2.4 3.9 2.2 3.3 2.2-.8 0-2.5-.5-3.1-3.7-3.9-2.1-.6-4.6-1.1-5.5-1.1-1.2 0-1.8-1.1-2.1-3.8l-.4-3.7-.1 3.6z"/></svg>